<mxfile host="app.diagrams.net" modified="2022-04-20T19:35:12.408Z" agent="5.0 (X11)" etag="AVTHy-Lqa-itcvTMslWH" version="17.4.5" type="github" pages="2">
  <diagram name="Page-1" id="82e54ff1-d628-8f03-85c4-9753963a91cd">
    <mxGraphModel dx="1174" dy="690" grid="1" gridSize="10" guides="1" tooltips="1" connect="1" arrows="1" fold="1" page="1" pageScale="1" pageWidth="1100" pageHeight="850" background="none" math="0" shadow="0">
      <root>
        <mxCell id="0" />
        <mxCell id="1" parent="0" />
        <mxCell id="nEgdPG6tb0b_NKAuEuqp-19" value="" style="endArrow=classic;html=1;rounded=0;fontFamily=Verdana;fontSize=14;fontColor=#000000;strokeColor=#61BAFF;strokeWidth=2;" edge="1" parent="1">
          <mxGeometry width="50" height="50" relative="1" as="geometry">
            <mxPoint x="40" y="404" as="sourcePoint" />
            <mxPoint x="1040" y="404" as="targetPoint" />
          </mxGeometry>
        </mxCell>
        <mxCell id="4ec97bd9e5d20128-5" value="Avril 2022" style="shape=offPageConnector;whiteSpace=wrap;html=1;fillColor=#0075E8;fontSize=15;fontColor=#FFFFFF;size=0.5093750000000015;verticalAlign=top;strokeColor=none;" parent="1" vertex="1">
          <mxGeometry x="38" y="330" width="140" height="50" as="geometry" />
        </mxCell>
        <mxCell id="4ec97bd9e5d20128-6" value="Juillet-Septembre 2022" style="shape=offPageConnector;whiteSpace=wrap;html=1;fillColor=#0075E8;fontSize=15;fontColor=#FFFFFF;size=0.5093750000000015;verticalAlign=top;strokeColor=none;" parent="1" vertex="1">
          <mxGeometry x="318" y="330" width="140" height="50" as="geometry" />
        </mxCell>
        <mxCell id="4ec97bd9e5d20128-7" value="Mai-Juin 2022" style="shape=offPageConnector;whiteSpace=wrap;html=1;fillColor=#0075E8;fontSize=15;fontColor=#FFFFFF;size=0.4178571428571445;flipV=1;verticalAlign=bottom;strokeColor=none;spacingBottom=4;" parent="1" vertex="1">
          <mxGeometry x="177" y="425" width="140" height="45" as="geometry" />
        </mxCell>
        <mxCell id="4ec97bd9e5d20128-8" value="27-29 octobre 2022" style="shape=offPageConnector;whiteSpace=wrap;html=1;fillColor=#0075E8;fontSize=15;fontColor=#FFFFFF;size=0.4178571428571445;flipV=1;verticalAlign=bottom;strokeColor=none;spacingBottom=4;" parent="1" vertex="1">
          <mxGeometry x="458" y="425" width="140" height="45" as="geometry" />
        </mxCell>
        <mxCell id="4ec97bd9e5d20128-9" value="" style="ellipse;whiteSpace=wrap;html=1;fillColor=#61BAFF;fontSize=28;fontColor=#004D99;strokeWidth=3;strokeColor=#004D99;" parent="1" vertex="1">
          <mxGeometry x="99" y="395" width="20" height="20" as="geometry" />
        </mxCell>
        <mxCell id="4ec97bd9e5d20128-10" value="" style="ellipse;whiteSpace=wrap;html=1;fillColor=#61BAFF;fontSize=28;fontColor=#004D99;strokeWidth=3;strokeColor=#004D99;" parent="1" vertex="1">
          <mxGeometry x="239" y="395" width="20" height="20" as="geometry" />
        </mxCell>
        <mxCell id="4ec97bd9e5d20128-11" value="" style="ellipse;whiteSpace=wrap;html=1;fillColor=#61BAFF;fontSize=28;fontColor=#004D99;strokeWidth=3;strokeColor=#004D99;" parent="1" vertex="1">
          <mxGeometry x="379" y="395" width="20" height="20" as="geometry" />
        </mxCell>
        <mxCell id="4ec97bd9e5d20128-13" value="" style="ellipse;whiteSpace=wrap;html=1;fillColor=#61BAFF;fontSize=28;fontColor=#004D99;strokeWidth=3;strokeColor=#004D99;" parent="1" vertex="1">
          <mxGeometry x="520" y="395" width="20" height="20" as="geometry" />
        </mxCell>
        <mxCell id="4ec97bd9e5d20128-14" value="&lt;div style=&quot;font-size: 14px&quot;&gt;&lt;font style=&quot;font-size: 14px&quot;&gt;&amp;nbsp;&lt;/font&gt;&lt;/div&gt;&lt;div style=&quot;font-size: 14px&quot;&gt;&lt;font style=&quot;font-size: 14px&quot; face=&quot;Verdana&quot;&gt;&lt;br&gt;&lt;/font&gt;&lt;/div&gt;&lt;div style=&quot;font-size: 14px&quot;&gt;&lt;font style=&quot;font-size: 14px&quot; face=&quot;Verdana&quot;&gt;Invitations et constitution d’un premier programme&lt;/font&gt;&lt;/div&gt;" style="text;html=1;spacing=5;spacingTop=-20;whiteSpace=wrap;overflow=hidden;strokeColor=none;strokeWidth=3;fillColor=#E6E6E6;fontSize=13;fontColor=#000000;align=center;rounded=1;" parent="1" vertex="1">
          <mxGeometry x="50" y="430" width="120" height="130" as="geometry" />
        </mxCell>
        <mxCell id="4ec97bd9e5d20128-16" value="&lt;div style=&quot;font-size: 14px&quot;&gt;&lt;font style=&quot;font-size: 14px&quot; face=&quot;Verdana&quot;&gt;&lt;br&gt;&lt;/font&gt;&lt;/div&gt;&lt;div style=&quot;font-size: 14px&quot;&gt;&lt;font style=&quot;font-size: 14px&quot; face=&quot;Verdana&quot;&gt;Organisation scientifique (finalisation du programme, création du site web du colloque) et logistique (gestion des transports et de l’hébergement) du colloque&lt;/font&gt;&lt;/div&gt;" style="text;html=1;spacing=5;spacingTop=-20;whiteSpace=wrap;overflow=hidden;strokeColor=none;strokeWidth=3;fillColor=#E6E6E6;fontSize=13;fontColor=#000000;align=center;rounded=1;" parent="1" vertex="1">
          <mxGeometry x="188" y="120" width="121" height="250" as="geometry" />
        </mxCell>
        <mxCell id="4ec97bd9e5d20128-17" value="&lt;div style=&quot;font-size: 14px&quot;&gt;&lt;font style=&quot;font-size: 14px&quot; face=&quot;Verdana&quot;&gt;&lt;br&gt;&lt;/font&gt;&lt;/div&gt;&lt;div style=&quot;font-size: 14px&quot;&gt;&lt;font style=&quot;font-size: 14px&quot; face=&quot;Verdana&quot;&gt;&lt;br&gt;&lt;/font&gt;&lt;/div&gt;&lt;div style=&quot;font-size: 14px&quot;&gt;&lt;font style=&quot;font-size: 14px&quot; face=&quot;Verdana&quot;&gt;Diffusion et publicisation de l’événement&lt;/font&gt;&lt;/div&gt;" style="text;html=1;spacing=5;spacingTop=-20;whiteSpace=wrap;overflow=hidden;strokeColor=none;strokeWidth=3;fillColor=#E6E6E6;fontSize=13;fontColor=#000000;align=center;rounded=1;" parent="1" vertex="1">
          <mxGeometry x="330" y="430" width="120" height="120" as="geometry" />
        </mxCell>
        <mxCell id="4ec97bd9e5d20128-18" value="&lt;div style=&quot;font-size: 14px&quot;&gt;&lt;font style=&quot;font-size: 14px&quot; face=&quot;Verdana&quot;&gt;&lt;br&gt;&lt;/font&gt;&lt;/div&gt;&lt;div style=&quot;font-size: 14px&quot;&gt;&lt;font style=&quot;font-size: 14px&quot; face=&quot;Verdana&quot;&gt;&lt;br&gt;&lt;/font&gt;&lt;/div&gt;&lt;div style=&quot;font-size: 14px&quot;&gt;&lt;font style=&quot;font-size: 14px&quot; face=&quot;Verdana&quot;&gt;&lt;br&gt;&lt;/font&gt;&lt;/div&gt;&lt;div style=&quot;font-size: 14px&quot;&gt;&lt;font style=&quot;font-size: 14px&quot; face=&quot;Verdana&quot;&gt;Tenue du colloque&lt;/font&gt;&lt;/div&gt;" style="text;html=1;spacing=5;spacingTop=-20;whiteSpace=wrap;overflow=hidden;strokeColor=none;strokeWidth=3;fillColor=#E6E6E6;fontSize=13;fontColor=#000000;align=center;rounded=1;" parent="1" vertex="1">
          <mxGeometry x="470" y="250" width="120" height="120" as="geometry" />
        </mxCell>
        <mxCell id="nEgdPG6tb0b_NKAuEuqp-4" value="Novembre - Décembre 2022" style="shape=offPageConnector;whiteSpace=wrap;html=1;fillColor=#0075E8;fontSize=15;fontColor=#FFFFFF;size=0.5093750000000015;verticalAlign=top;strokeColor=none;" vertex="1" parent="1">
          <mxGeometry x="598" y="320" width="140" height="60" as="geometry" />
        </mxCell>
        <mxCell id="nEgdPG6tb0b_NKAuEuqp-5" value="Janvier 2023" style="shape=offPageConnector;whiteSpace=wrap;html=1;fillColor=#0075E8;fontSize=15;fontColor=#FFFFFF;size=0.4178571428571445;flipV=1;verticalAlign=bottom;strokeColor=none;spacingBottom=4;" vertex="1" parent="1">
          <mxGeometry x="738" y="425" width="140" height="45" as="geometry" />
        </mxCell>
        <mxCell id="nEgdPG6tb0b_NKAuEuqp-6" value="" style="ellipse;whiteSpace=wrap;html=1;fillColor=#61BAFF;fontSize=28;fontColor=#004D99;strokeWidth=3;strokeColor=#004D99;" vertex="1" parent="1">
          <mxGeometry x="660" y="395" width="20" height="20" as="geometry" />
        </mxCell>
        <mxCell id="nEgdPG6tb0b_NKAuEuqp-7" value="" style="ellipse;whiteSpace=wrap;html=1;fillColor=#61BAFF;fontSize=28;fontColor=#004D99;strokeWidth=3;strokeColor=#004D99;" vertex="1" parent="1">
          <mxGeometry x="800" y="395" width="20" height="20" as="geometry" />
        </mxCell>
        <mxCell id="nEgdPG6tb0b_NKAuEuqp-8" value="&lt;div style=&quot;font-size: 14px&quot;&gt;&lt;font style=&quot;font-size: 14px&quot; face=&quot;Verdana&quot;&gt;&lt;br&gt;&lt;/font&gt;&lt;/div&gt;&lt;div style=&quot;font-size: 14px&quot;&gt;&lt;font style=&quot;font-size: 14px&quot; face=&quot;Verdana&quot;&gt;Édition du site web du colloque ; éditorialisation et hébergement des captations vidéos&lt;/font&gt;&lt;/div&gt;" style="text;html=1;spacing=5;spacingTop=-20;whiteSpace=wrap;overflow=hidden;strokeColor=none;strokeWidth=3;fillColor=#E6E6E6;fontSize=13;fontColor=#000000;align=center;rounded=1;" vertex="1" parent="1">
          <mxGeometry x="610" y="430" width="120" height="170" as="geometry" />
        </mxCell>
        <mxCell id="nEgdPG6tb0b_NKAuEuqp-9" value="&lt;div&gt;&lt;font face=&quot;Verdana&quot;&gt;&lt;br&gt;&lt;/font&gt;&lt;/div&gt;&lt;div align=&quot;center&quot;&gt;&lt;font face=&quot;Verdana&quot;&gt;&lt;span style=&quot;background-color: transparent&quot;&gt;&lt;span style=&quot;font-size: 14px ; font-style: normal ; font-weight: 400 ; letter-spacing: normal ; text-indent: 0px ; text-transform: none ; word-spacing: 0px ; display: inline ; float: none&quot;&gt;&lt;br&gt;&lt;/span&gt;&lt;/span&gt;&lt;/font&gt;&lt;/div&gt;&lt;div align=&quot;center&quot;&gt;&lt;font face=&quot;Verdana&quot;&gt;&lt;span style=&quot;background-color: transparent&quot;&gt;&lt;span style=&quot;font-size: 14px ; font-style: normal ; font-weight: 400 ; letter-spacing: normal ; text-indent: 0px ; text-transform: none ; word-spacing: 0px ; display: inline ; float: none&quot;&gt;Rassemblement des articles en vue de la monographie&lt;/span&gt;&lt;/span&gt;&lt;/font&gt;&lt;/div&gt;" style="text;html=1;spacing=5;spacingTop=-20;whiteSpace=wrap;overflow=hidden;strokeColor=none;strokeWidth=3;fillColor=#E6E6E6;fontSize=13;fontColor=#000000;align=center;rounded=1;" vertex="1" parent="1">
          <mxGeometry x="749" y="250" width="122" height="120" as="geometry" />
        </mxCell>
        <mxCell id="nEgdPG6tb0b_NKAuEuqp-10" value="Février - Mars 2023" style="shape=offPageConnector;whiteSpace=wrap;html=1;fillColor=#0075E8;fontSize=15;fontColor=#FFFFFF;size=0.5093750000000015;verticalAlign=top;strokeColor=none;" vertex="1" parent="1">
          <mxGeometry x="878" y="330" width="140" height="50" as="geometry" />
        </mxCell>
        <mxCell id="nEgdPG6tb0b_NKAuEuqp-12" value="" style="ellipse;whiteSpace=wrap;html=1;fillColor=#61BAFF;fontSize=28;fontColor=#004D99;strokeWidth=3;strokeColor=#004D99;" vertex="1" parent="1">
          <mxGeometry x="940" y="395" width="20" height="20" as="geometry" />
        </mxCell>
        <mxCell id="nEgdPG6tb0b_NKAuEuqp-14" value="&lt;font face=&quot;Verdana&quot;&gt;&lt;br&gt;&lt;/font&gt;&lt;div&gt;&lt;font face=&quot;Verdana&quot;&gt;&lt;span style=&quot;font-size: 14px ; font-style: normal ; font-weight: 400 ; letter-spacing: normal ; text-align: left ; text-indent: 0px ; text-transform: none ; word-spacing: 0px ; background-color: rgba(221 , 223 , 228 , 0.07) ; display: inline ; float: none&quot;&gt;Édition et publication des résultats de recherche sous forme d’une monographie pour la collection Parcours Numériques au Presses de l’Université de Montréal&lt;/span&gt;&lt;/font&gt;&lt;/div&gt;" style="text;html=1;spacing=5;spacingTop=-20;whiteSpace=wrap;overflow=hidden;strokeColor=none;strokeWidth=3;fillColor=#E6E6E6;fontSize=13;fontColor=#000000;align=center;rounded=1;" vertex="1" parent="1">
          <mxGeometry x="890" y="425" width="120" height="265" as="geometry" />
        </mxCell>
      </root>
    </mxGraphModel>
  </diagram>
  <diagram id="u-IhlHnQR7dtKlET2x_p" name="Page-2">
    <mxGraphModel dx="1588" dy="933" grid="1" gridSize="10" guides="1" tooltips="1" connect="1" arrows="1" fold="1" page="1" pageScale="1" pageWidth="827" pageHeight="1169" math="0" shadow="0">
      <root>
        <mxCell id="0" />
        <mxCell id="1" parent="0" />
        <mxCell id="8PaUWmmkuvs1UmRN-Epq-35" value="" style="endArrow=none;html=1;rounded=0;fontFamily=Verdana;fontSize=14;fontColor=#000000;strokeColor=#61BAFF;strokeWidth=2;startArrow=none;" edge="1" parent="1" source="8PaUWmmkuvs1UmRN-Epq-16" target="8PaUWmmkuvs1UmRN-Epq-17">
          <mxGeometry width="50" height="50" relative="1" as="geometry">
            <mxPoint x="429" y="520" as="sourcePoint" />
            <mxPoint x="429" y="1070" as="targetPoint" />
          </mxGeometry>
        </mxCell>
        <mxCell id="8PaUWmmkuvs1UmRN-Epq-1" value="" style="endArrow=classic;html=1;rounded=0;fontFamily=Verdana;fontSize=14;fontColor=#000000;strokeColor=#61BAFF;strokeWidth=2;startArrow=none;" edge="1" parent="1" source="8PaUWmmkuvs1UmRN-Epq-21">
          <mxGeometry width="50" height="50" relative="1" as="geometry">
            <mxPoint x="429" y="30" as="sourcePoint" />
            <mxPoint x="429" y="1133" as="targetPoint" />
          </mxGeometry>
        </mxCell>
        <mxCell id="8PaUWmmkuvs1UmRN-Epq-2" value="Avril 2022" style="shape=offPageConnector;whiteSpace=wrap;html=1;fillColor=#0075E8;fontSize=15;fontColor=#FFFFFF;size=0.42;verticalAlign=middle;strokeColor=none;textDirection=ltr;rotation=-90;" vertex="1" parent="1">
          <mxGeometry x="289" y="53.75" width="140" height="52.5" as="geometry" />
        </mxCell>
        <mxCell id="8PaUWmmkuvs1UmRN-Epq-3" value="Juillet-Septembre 2022" style="shape=offPageConnector;whiteSpace=wrap;html=1;fillColor=#0075E8;fontSize=15;fontColor=#FFFFFF;size=0.5093750000000015;verticalAlign=top;strokeColor=none;rotation=-90;" vertex="1" parent="1">
          <mxGeometry x="284" y="375" width="140" height="50" as="geometry" />
        </mxCell>
        <mxCell id="8PaUWmmkuvs1UmRN-Epq-4" value="Mai-Juin 2022" style="shape=offPageConnector;whiteSpace=wrap;html=1;fillColor=#0075E8;fontSize=15;fontColor=#FFFFFF;size=0.4178571428571445;flipV=1;verticalAlign=bottom;strokeColor=none;spacingBottom=4;textDirection=ltr;rotation=-90;" vertex="1" parent="1">
          <mxGeometry x="430" y="218" width="140" height="45" as="geometry" />
        </mxCell>
        <mxCell id="8PaUWmmkuvs1UmRN-Epq-5" value="27-29 octobre 2022" style="shape=offPageConnector;whiteSpace=wrap;html=1;fillColor=#0075E8;fontSize=15;fontColor=#FFFFFF;size=0.4178571428571445;flipV=1;verticalAlign=bottom;strokeColor=none;spacingBottom=4;rotation=-90;" vertex="1" parent="1">
          <mxGeometry x="431" y="538" width="140" height="45" as="geometry" />
        </mxCell>
        <mxCell id="8PaUWmmkuvs1UmRN-Epq-8" value="" style="ellipse;whiteSpace=wrap;html=1;fillColor=#61BAFF;fontSize=28;fontColor=#004D99;strokeWidth=3;strokeColor=#004D99;" vertex="1" parent="1">
          <mxGeometry x="419" y="390" width="20" height="20" as="geometry" />
        </mxCell>
        <mxCell id="8PaUWmmkuvs1UmRN-Epq-10" value="&lt;div style=&quot;font-size: 14px&quot;&gt;&lt;font style=&quot;font-size: 14px&quot;&gt;&amp;nbsp;&lt;/font&gt;&lt;/div&gt;&lt;div style=&quot;font-size: 14px&quot;&gt;&lt;font style=&quot;font-size: 14px&quot; face=&quot;Verdana&quot;&gt;&lt;br&gt;&lt;/font&gt;&lt;/div&gt;&lt;div style=&quot;font-size: 14px&quot;&gt;&lt;font style=&quot;font-size: 14px&quot; face=&quot;Verdana&quot;&gt;Invitations et constitution d’un premier programme&lt;/font&gt;&lt;/div&gt;" style="text;html=1;spacing=5;spacingTop=-20;whiteSpace=wrap;overflow=hidden;strokeColor=none;strokeWidth=3;fillColor=#E6E6E6;fontSize=13;fontColor=#000000;align=center;rounded=1;" vertex="1" parent="1">
          <mxGeometry x="479" y="20" width="120" height="120" as="geometry" />
        </mxCell>
        <mxCell id="8PaUWmmkuvs1UmRN-Epq-11" value="&lt;div style=&quot;font-size: 14px&quot;&gt;&lt;font style=&quot;font-size: 14px&quot; face=&quot;Verdana&quot;&gt;&lt;br&gt;&lt;/font&gt;&lt;/div&gt;&lt;div style=&quot;font-size: 14px&quot;&gt;&lt;font style=&quot;font-size: 14px&quot; face=&quot;Verdana&quot;&gt;Organisation scientifique (finalisation du programme, création du site web du colloque) et logistique (gestion des transports et de l’hébergement) du colloque&lt;/font&gt;&lt;/div&gt;" style="text;html=1;spacing=5;spacingTop=-20;whiteSpace=wrap;overflow=hidden;strokeColor=none;strokeWidth=3;fillColor=#E6E6E6;fontSize=13;fontColor=#000000;align=center;rounded=1;" vertex="1" parent="1">
          <mxGeometry x="109" y="180" width="271" height="120" as="geometry" />
        </mxCell>
        <mxCell id="8PaUWmmkuvs1UmRN-Epq-12" value="&lt;div style=&quot;font-size: 14px&quot;&gt;&lt;font style=&quot;font-size: 14px&quot; face=&quot;Verdana&quot;&gt;&lt;br&gt;&lt;/font&gt;&lt;/div&gt;&lt;div style=&quot;font-size: 14px&quot;&gt;&lt;font style=&quot;font-size: 14px&quot; face=&quot;Verdana&quot;&gt;&lt;br&gt;&lt;/font&gt;&lt;/div&gt;&lt;div style=&quot;font-size: 14px&quot;&gt;&lt;font style=&quot;font-size: 14px&quot; face=&quot;Verdana&quot;&gt;Diffusion et publicisation de l’événement&lt;/font&gt;&lt;/div&gt;" style="text;html=1;spacing=5;spacingTop=-20;whiteSpace=wrap;overflow=hidden;strokeColor=none;strokeWidth=3;fillColor=#E6E6E6;fontSize=13;fontColor=#000000;align=center;rounded=1;" vertex="1" parent="1">
          <mxGeometry x="478" y="340" width="120" height="120" as="geometry" />
        </mxCell>
        <mxCell id="8PaUWmmkuvs1UmRN-Epq-13" value="&lt;div style=&quot;font-size: 14px&quot;&gt;&lt;font style=&quot;font-size: 14px&quot; face=&quot;Verdana&quot;&gt;&lt;br&gt;&lt;/font&gt;&lt;/div&gt;&lt;div style=&quot;font-size: 14px&quot;&gt;&lt;font style=&quot;font-size: 14px&quot; face=&quot;Verdana&quot;&gt;&lt;br&gt;&lt;/font&gt;&lt;/div&gt;&lt;div style=&quot;font-size: 14px&quot;&gt;&lt;font style=&quot;font-size: 14px&quot; face=&quot;Verdana&quot;&gt;&lt;br&gt;&lt;/font&gt;&lt;/div&gt;&lt;div style=&quot;font-size: 14px&quot;&gt;&lt;font style=&quot;font-size: 14px&quot; face=&quot;Verdana&quot;&gt;Tenue du colloque&lt;/font&gt;&lt;/div&gt;" style="text;html=1;spacing=5;spacingTop=-20;whiteSpace=wrap;overflow=hidden;strokeColor=none;strokeWidth=3;fillColor=#E6E6E6;fontSize=13;fontColor=#000000;align=center;rounded=1;" vertex="1" parent="1">
          <mxGeometry x="262" y="500" width="120" height="120" as="geometry" />
        </mxCell>
        <mxCell id="8PaUWmmkuvs1UmRN-Epq-14" value="Novembre Décembre 2022" style="shape=offPageConnector;whiteSpace=wrap;html=1;fillColor=#0075E8;fontSize=15;fontColor=#FFFFFF;size=0.5093750000000015;verticalAlign=top;strokeColor=none;rotation=-90;" vertex="1" parent="1">
          <mxGeometry x="279" y="689" width="140" height="60" as="geometry" />
        </mxCell>
        <mxCell id="8PaUWmmkuvs1UmRN-Epq-15" value="Janvier 2023" style="shape=offPageConnector;whiteSpace=wrap;html=1;fillColor=#0075E8;fontSize=15;fontColor=#FFFFFF;size=0.4178571428571445;flipV=1;verticalAlign=bottom;strokeColor=none;spacingBottom=4;rotation=-90;" vertex="1" parent="1">
          <mxGeometry x="432" y="857.5" width="140" height="45" as="geometry" />
        </mxCell>
        <mxCell id="8PaUWmmkuvs1UmRN-Epq-18" value="&lt;div style=&quot;font-size: 14px&quot;&gt;&lt;font style=&quot;font-size: 14px&quot; face=&quot;Verdana&quot;&gt;&lt;br&gt;&lt;/font&gt;&lt;/div&gt;&lt;div style=&quot;font-size: 14px&quot;&gt;&lt;font style=&quot;font-size: 14px&quot; face=&quot;Verdana&quot;&gt;Édition du site web du colloque ; éditorialisation et hébergement des captations vidéos&lt;/font&gt;&lt;/div&gt;" style="text;html=1;spacing=5;spacingTop=-20;whiteSpace=wrap;overflow=hidden;strokeColor=none;strokeWidth=3;fillColor=#E6E6E6;fontSize=13;fontColor=#000000;align=center;rounded=1;" vertex="1" parent="1">
          <mxGeometry x="479" y="660" width="180" height="120" as="geometry" />
        </mxCell>
        <mxCell id="8PaUWmmkuvs1UmRN-Epq-19" value="&lt;div&gt;&lt;font face=&quot;Verdana&quot;&gt;&lt;br&gt;&lt;/font&gt;&lt;/div&gt;&lt;div align=&quot;center&quot;&gt;&lt;font face=&quot;Verdana&quot;&gt;&lt;span style=&quot;background-color: transparent&quot;&gt;&lt;span style=&quot;font-size: 14px ; font-style: normal ; font-weight: 400 ; letter-spacing: normal ; text-indent: 0px ; text-transform: none ; word-spacing: 0px ; display: inline ; float: none&quot;&gt;&lt;br&gt;&lt;/span&gt;&lt;/span&gt;&lt;/font&gt;&lt;/div&gt;&lt;div align=&quot;center&quot;&gt;&lt;font face=&quot;Verdana&quot;&gt;&lt;span style=&quot;background-color: transparent&quot;&gt;&lt;span style=&quot;font-size: 14px ; font-style: normal ; font-weight: 400 ; letter-spacing: normal ; text-indent: 0px ; text-transform: none ; word-spacing: 0px ; display: inline ; float: none&quot;&gt;Rassemblement des articles en vue de la monographie&lt;/span&gt;&lt;/span&gt;&lt;/font&gt;&lt;/div&gt;" style="text;html=1;spacing=5;spacingTop=-20;whiteSpace=wrap;overflow=hidden;strokeColor=none;strokeWidth=3;fillColor=#E6E6E6;fontSize=13;fontColor=#000000;align=center;rounded=1;" vertex="1" parent="1">
          <mxGeometry x="258" y="820" width="122" height="120" as="geometry" />
        </mxCell>
        <mxCell id="8PaUWmmkuvs1UmRN-Epq-20" value="Février - Mars 2023" style="shape=offPageConnector;whiteSpace=wrap;html=1;fillColor=#0075E8;fontSize=15;fontColor=#FFFFFF;size=0.5093750000000015;verticalAlign=top;strokeColor=none;rotation=-90;" vertex="1" parent="1">
          <mxGeometry x="284" y="1015" width="140" height="50" as="geometry" />
        </mxCell>
        <mxCell id="8PaUWmmkuvs1UmRN-Epq-22" value="&lt;font face=&quot;Verdana&quot;&gt;&lt;br&gt;&lt;/font&gt;&lt;div&gt;&lt;font face=&quot;Verdana&quot;&gt;&lt;span style=&quot;font-size: 14px ; font-style: normal ; font-weight: 400 ; letter-spacing: normal ; text-align: left ; text-indent: 0px ; text-transform: none ; word-spacing: 0px ; background-color: rgba(221 , 223 , 228 , 0.07) ; display: inline ; float: none&quot;&gt;Édition et publication des résultats de recherche sous forme d’une monographie pour la collection Parcours Numériques au Presses de l’Université de Montréal&lt;/span&gt;&lt;/font&gt;&lt;/div&gt;" style="text;html=1;spacing=5;spacingTop=-20;whiteSpace=wrap;overflow=hidden;strokeColor=none;strokeWidth=3;fillColor=#E6E6E6;fontSize=13;fontColor=#000000;align=center;rounded=1;" vertex="1" parent="1">
          <mxGeometry x="469" y="979" width="260" height="120" as="geometry" />
        </mxCell>
        <mxCell id="8PaUWmmkuvs1UmRN-Epq-6" value="" style="ellipse;whiteSpace=wrap;html=1;fillColor=#61BAFF;fontSize=28;fontColor=#004D99;strokeWidth=3;strokeColor=#004D99;" vertex="1" parent="1">
          <mxGeometry x="419" y="70" width="20" height="20" as="geometry" />
        </mxCell>
        <mxCell id="8PaUWmmkuvs1UmRN-Epq-23" value="" style="endArrow=none;html=1;rounded=0;fontFamily=Verdana;fontSize=14;fontColor=#000000;strokeColor=#61BAFF;strokeWidth=2;" edge="1" parent="1" target="8PaUWmmkuvs1UmRN-Epq-6">
          <mxGeometry width="50" height="50" relative="1" as="geometry">
            <mxPoint x="429" y="30" as="sourcePoint" />
            <mxPoint x="429" y="1133" as="targetPoint" />
          </mxGeometry>
        </mxCell>
        <mxCell id="8PaUWmmkuvs1UmRN-Epq-7" value="" style="ellipse;whiteSpace=wrap;html=1;fillColor=#61BAFF;fontSize=28;fontColor=#004D99;strokeWidth=3;strokeColor=#004D99;" vertex="1" parent="1">
          <mxGeometry x="419" y="230" width="20" height="20" as="geometry" />
        </mxCell>
        <mxCell id="8PaUWmmkuvs1UmRN-Epq-24" value="" style="endArrow=none;html=1;rounded=0;fontFamily=Verdana;fontSize=14;fontColor=#000000;strokeColor=#61BAFF;strokeWidth=2;startArrow=none;" edge="1" parent="1" source="8PaUWmmkuvs1UmRN-Epq-6" target="8PaUWmmkuvs1UmRN-Epq-7">
          <mxGeometry width="50" height="50" relative="1" as="geometry">
            <mxPoint x="429" y="90" as="sourcePoint" />
            <mxPoint x="429" y="1133" as="targetPoint" />
          </mxGeometry>
        </mxCell>
        <mxCell id="8PaUWmmkuvs1UmRN-Epq-9" value="" style="ellipse;whiteSpace=wrap;html=1;fillColor=#61BAFF;fontSize=28;fontColor=#004D99;strokeWidth=3;strokeColor=#004D99;" vertex="1" parent="1">
          <mxGeometry x="419" y="550" width="20" height="20" as="geometry" />
        </mxCell>
        <mxCell id="8PaUWmmkuvs1UmRN-Epq-28" value="" style="endArrow=none;html=1;rounded=0;fontFamily=Verdana;fontSize=14;fontColor=#000000;strokeColor=#61BAFF;strokeWidth=2;startArrow=none;" edge="1" parent="1" source="8PaUWmmkuvs1UmRN-Epq-7" target="8PaUWmmkuvs1UmRN-Epq-9">
          <mxGeometry width="50" height="50" relative="1" as="geometry">
            <mxPoint x="429" y="210" as="sourcePoint" />
            <mxPoint x="429" y="1133" as="targetPoint" />
          </mxGeometry>
        </mxCell>
        <mxCell id="8PaUWmmkuvs1UmRN-Epq-16" value="" style="ellipse;whiteSpace=wrap;html=1;fillColor=#61BAFF;fontSize=28;fontColor=#004D99;strokeWidth=3;strokeColor=#004D99;" vertex="1" parent="1">
          <mxGeometry x="419" y="709" width="20" height="20" as="geometry" />
        </mxCell>
        <mxCell id="8PaUWmmkuvs1UmRN-Epq-29" value="" style="endArrow=none;html=1;rounded=0;fontFamily=Verdana;fontSize=14;fontColor=#000000;strokeColor=#61BAFF;strokeWidth=2;startArrow=none;" edge="1" parent="1" source="8PaUWmmkuvs1UmRN-Epq-9" target="8PaUWmmkuvs1UmRN-Epq-16">
          <mxGeometry width="50" height="50" relative="1" as="geometry">
            <mxPoint x="429" y="425" as="sourcePoint" />
            <mxPoint x="429" y="1133" as="targetPoint" />
          </mxGeometry>
        </mxCell>
        <mxCell id="8PaUWmmkuvs1UmRN-Epq-21" value="" style="ellipse;whiteSpace=wrap;html=1;fillColor=#61BAFF;fontSize=28;fontColor=#004D99;strokeWidth=3;strokeColor=#004D99;" vertex="1" parent="1">
          <mxGeometry x="419" y="1030" width="20" height="20" as="geometry" />
        </mxCell>
        <mxCell id="8PaUWmmkuvs1UmRN-Epq-32" value="" style="endArrow=none;html=1;rounded=0;fontFamily=Verdana;fontSize=14;fontColor=#000000;strokeColor=#61BAFF;strokeWidth=2;startArrow=none;" edge="1" parent="1" source="8PaUWmmkuvs1UmRN-Epq-17" target="8PaUWmmkuvs1UmRN-Epq-21">
          <mxGeometry width="50" height="50" relative="1" as="geometry">
            <mxPoint x="429" y="520" as="sourcePoint" />
            <mxPoint x="429" y="1133" as="targetPoint" />
          </mxGeometry>
        </mxCell>
        <mxCell id="8PaUWmmkuvs1UmRN-Epq-17" value="" style="ellipse;whiteSpace=wrap;html=1;fillColor=#61BAFF;fontSize=28;fontColor=#004D99;strokeWidth=3;strokeColor=#004D99;" vertex="1" parent="1">
          <mxGeometry x="419" y="870" width="20" height="20" as="geometry" />
        </mxCell>
      </root>
    </mxGraphModel>
  </diagram>
</mxfile>
